<?xml version="1.0" encoding="UTF-8"?>
<svg width="24px" height="24px" viewBox="0 0 24 24" version="1.1" xmlns="http://www.w3.org/2000/svg">
    <g stroke="none" stroke-width="1" fill="none" fill-rule="evenodd">
        <path d="M4,4 L20,4 L20,20 L4,20 L4,4 Z M6,6 L6,18 L18,18 L18,6 L6,6 Z" fill="#000000" fill-rule="nonzero"/>
        <path d="M8,8 L8,10 L10,10 L10,8 L8,8 Z M12,8 L12,10 L14,10 L14,8 L12,8 Z M16,8 L16,10 L18,10 L18,8 L16,8 Z M8,12 L8,14 L10,14 L10,12 L8,12 Z M12,12 L12,14 L14,14 L14,12 L12,12 Z M16,12 L16,14 L18,14 L18,12 L16,12 Z M8,16 L8,18 L10,18 L10,16 L8,16 Z M12,16 L12,18 L14,18 L14,16 L12,16 Z M16,16 L16,18 L18,18 L18,16 L16,16 Z" fill="#000000" fill-rule="nonzero"/>
    </g>
</svg> 